<?xml version="1.0" encoding="utf-8"?>
<svg xmlns="http://www.w3.org/2000/svg" width="900" height="816" viewBox="0 0 900 816">
  <path d="M 203 672 L 203 676 L 207 678 L 210 681 L 211 681 L 216 685 L 224 689 L 226 689 L 233 693 L 235 693 L 236 694 L 238 694 L 242 696 L 245 696 L 249 698 L 257 698 L 258 699 L 264 700 L 265 701 L 273 701 L 274 702 L 305 702 L 306 701 L 315 701 L 316 700 L 319 700 L 321 699 L 325 695 L 327 691 L 327 683 L 326 682 L 326 679 L 325 678 L 325 675 L 324 674 L 324 671 L 323 670 L 323 667 L 322 666 L 322 663 L 321 662 L 321 659 L 320 658 L 319 651 L 318 650 L 317 645 L 315 642 L 315 640 L 314 639 L 312 631 L 310 628 L 309 623 L 306 617 L 300 611 L 299 611 L 297 609 L 295 609 L 291 607 L 276 607 L 275 606 L 269 606 L 268 605 L 266 605 L 262 603 L 254 603 L 253 604 L 250 604 L 246 606 L 227 625 L 227 626 L 223 631 L 222 634 L 220 636 L 215 646 L 215 648 L 203 672 Z M 695 602 L 693 601 L 686 601 L 681 604 L 678 604 L 674 606 L 671 606 L 670 607 L 662 607 L 661 608 L 657 608 L 656 609 L 654 609 L 646 613 L 637 622 L 633 629 L 633 631 L 632 632 L 632 634 L 631 635 L 631 637 L 630 638 L 630 640 L 629 641 L 629 643 L 628 644 L 628 646 L 627 647 L 627 649 L 626 650 L 626 652 L 625 653 L 625 655 L 623 659 L 623 662 L 622 663 L 622 666 L 621 667 L 621 670 L 620 671 L 620 674 L 619 675 L 619 678 L 618 679 L 618 682 L 617 683 L 617 692 L 619 696 L 621 698 L 622 698 L 624 700 L 627 700 L 628 701 L 637 701 L 638 702 L 671 702 L 675 700 L 686 700 L 687 699 L 692 699 L 696 697 L 699 697 L 703 695 L 706 695 L 707 694 L 712 693 L 719 689 L 721 689 L 731 684 L 739 678 L 740 676 L 740 670 L 731 653 L 731 651 L 729 648 L 729 645 L 727 641 L 725 639 L 723 634 L 718 628 L 718 627 L 713 621 L 713 620 L 710 617 L 710 616 L 695 602 Z M 388 547 L 386 547 L 383 550 L 383 551 L 350 584 L 349 584 L 343 589 L 336 593 L 333 596 L 330 597 L 325 603 L 325 606 L 324 607 L 325 614 L 328 620 L 328 622 L 329 623 L 329 625 L 330 626 L 332 634 L 334 637 L 334 639 L 335 640 L 335 642 L 337 646 L 337 649 L 338 650 L 338 653 L 339 654 L 339 657 L 340 658 L 340 661 L 341 662 L 341 665 L 342 666 L 342 670 L 343 671 L 343 674 L 344 675 L 344 678 L 345 679 L 345 682 L 346 683 L 346 687 L 347 688 L 347 690 L 349 692 L 355 691 L 358 689 L 360 689 L 370 684 L 372 682 L 383 677 L 385 675 L 386 675 L 388 673 L 389 673 L 391 671 L 398 667 L 408 658 L 409 658 L 415 652 L 416 652 L 433 635 L 433 634 L 450 616 L 450 611 L 449 609 L 445 605 L 445 604 L 438 596 L 438 595 L 433 590 L 432 590 L 392 550 L 391 550 L 388 547 Z M 202 545 L 194 545 L 193 546 L 184 546 L 183 547 L 177 547 L 174 549 L 161 550 L 160 551 L 156 551 L 155 552 L 147 554 L 140 558 L 137 561 L 133 569 L 133 581 L 134 582 L 134 584 L 135 585 L 135 587 L 136 588 L 136 590 L 137 591 L 139 599 L 143 606 L 143 608 L 148 618 L 154 626 L 155 629 L 157 631 L 157 632 L 159 634 L 163 641 L 185 664 L 187 664 L 191 656 L 191 654 L 195 647 L 195 645 L 199 638 L 199 636 L 202 630 L 210 619 L 211 616 L 214 613 L 214 612 L 236 590 L 236 586 L 229 579 L 229 578 L 227 576 L 225 571 L 223 569 L 219 561 L 219 559 L 217 555 L 210 548 L 206 546 L 203 546 L 202 545 Z M 742 543 L 741 544 L 737 544 L 736 545 L 734 545 L 728 551 L 728 553 L 726 556 L 726 558 L 725 559 L 725 561 L 723 565 L 721 567 L 716 577 L 710 583 L 709 585 L 709 591 L 730 612 L 730 613 L 733 616 L 733 617 L 737 622 L 739 627 L 741 629 L 743 634 L 745 636 L 747 641 L 749 643 L 749 645 L 751 648 L 751 650 L 753 653 L 753 655 L 754 656 L 754 658 L 756 662 L 760 663 L 782 641 L 782 640 L 786 635 L 787 632 L 791 627 L 792 624 L 796 619 L 797 616 L 799 614 L 799 612 L 801 609 L 801 607 L 803 604 L 804 599 L 806 596 L 807 591 L 810 585 L 810 580 L 811 579 L 811 577 L 812 576 L 812 574 L 813 573 L 813 571 L 815 567 L 815 563 L 812 559 L 806 556 L 804 556 L 803 555 L 801 555 L 800 554 L 798 554 L 794 552 L 791 552 L 790 551 L 788 551 L 784 549 L 781 549 L 777 547 L 769 547 L 768 546 L 765 546 L 764 545 L 750 545 L 747 543 L 742 543 Z M 550 542 L 486 606 L 486 609 L 522 646 L 523 646 L 545 666 L 546 666 L 569 682 L 573 684 L 575 684 L 590 692 L 594 692 L 597 688 L 597 685 L 598 684 L 598 681 L 599 680 L 599 677 L 600 676 L 600 673 L 601 672 L 601 669 L 602 668 L 602 665 L 603 664 L 603 661 L 604 660 L 605 653 L 606 652 L 606 650 L 607 649 L 607 647 L 608 646 L 608 644 L 609 643 L 609 641 L 610 640 L 610 638 L 611 637 L 611 635 L 612 634 L 614 626 L 623 608 L 623 602 L 621 599 L 604 591 L 601 588 L 600 588 L 597 585 L 596 585 L 592 581 L 591 581 L 562 552 L 562 551 L 554 542 L 550 542 Z M 475 457 L 472 457 L 428 501 L 428 502 L 406 525 L 406 526 L 402 531 L 402 534 L 403 536 L 409 542 L 410 542 L 451 583 L 452 583 L 459 591 L 459 592 L 464 597 L 469 597 L 537 528 L 538 526 L 538 523 L 531 515 L 531 514 L 475 457 Z M 715 480 L 714 482 L 714 487 L 720 495 L 722 499 L 722 501 L 725 506 L 725 509 L 728 515 L 735 522 L 739 524 L 742 524 L 743 525 L 757 525 L 758 526 L 762 526 L 763 527 L 774 527 L 775 528 L 779 528 L 780 529 L 783 529 L 784 530 L 787 530 L 788 531 L 791 531 L 792 532 L 797 533 L 807 538 L 809 538 L 814 541 L 816 541 L 817 540 L 817 518 L 816 517 L 816 511 L 815 510 L 815 502 L 814 501 L 814 498 L 813 497 L 813 494 L 812 493 L 812 490 L 811 489 L 810 482 L 807 476 L 807 474 L 806 473 L 805 468 L 803 465 L 802 460 L 795 446 L 793 444 L 791 440 L 788 437 L 786 433 L 783 430 L 780 430 L 773 435 L 770 436 L 765 440 L 762 441 L 757 445 L 751 448 L 740 458 L 739 458 L 734 463 L 733 463 L 728 468 L 727 468 L 715 480 Z M 164 430 L 161 430 L 159 432 L 159 433 L 149 447 L 148 450 L 146 452 L 146 454 L 144 457 L 144 459 L 142 462 L 142 464 L 140 467 L 140 469 L 138 472 L 138 474 L 136 477 L 136 479 L 134 483 L 134 486 L 133 487 L 133 492 L 132 493 L 132 498 L 131 499 L 131 502 L 129 505 L 129 511 L 128 512 L 128 522 L 129 523 L 129 525 L 130 527 L 136 533 L 138 534 L 141 534 L 142 535 L 147 535 L 151 533 L 154 533 L 155 532 L 158 532 L 159 531 L 162 531 L 163 530 L 166 530 L 167 529 L 171 529 L 172 528 L 190 527 L 191 526 L 194 526 L 195 525 L 205 525 L 206 524 L 210 523 L 215 518 L 217 514 L 217 511 L 218 510 L 219 505 L 226 491 L 230 486 L 230 481 L 220 470 L 219 470 L 215 466 L 214 466 L 210 462 L 209 462 L 196 451 L 195 451 L 193 449 L 192 449 L 190 447 L 189 447 L 187 445 L 186 445 L 184 443 L 183 443 L 181 441 L 180 441 L 178 439 L 177 439 L 175 437 L 174 437 L 164 430 Z M 634 369 L 630 368 L 629 367 L 627 367 L 626 366 L 624 366 L 623 365 L 620 365 L 619 364 L 609 364 L 608 363 L 604 363 L 603 364 L 597 364 L 596 365 L 593 365 L 592 366 L 587 367 L 578 372 L 576 372 L 572 374 L 564 380 L 561 381 L 553 388 L 552 388 L 547 393 L 546 393 L 542 397 L 541 397 L 537 401 L 536 401 L 516 420 L 515 420 L 504 431 L 503 431 L 492 442 L 491 442 L 491 446 L 514 469 L 514 470 L 551 508 L 554 508 L 574 487 L 575 487 L 580 482 L 581 482 L 585 478 L 586 478 L 597 468 L 598 468 L 601 465 L 606 463 L 608 461 L 618 456 L 620 456 L 624 454 L 632 445 L 633 441 L 634 440 L 634 369 Z M 312 368 L 310 370 L 310 443 L 311 444 L 312 448 L 317 453 L 321 455 L 326 456 L 338 462 L 340 464 L 341 464 L 343 466 L 350 470 L 353 473 L 354 473 L 391 510 L 394 510 L 401 503 L 401 502 L 427 476 L 427 475 L 453 449 L 453 448 L 456 445 L 456 443 L 449 436 L 448 436 L 445 433 L 444 433 L 437 427 L 436 427 L 429 420 L 428 420 L 421 413 L 420 413 L 414 407 L 413 407 L 391 387 L 390 387 L 370 373 L 366 371 L 364 371 L 359 368 L 357 368 L 352 365 L 349 365 L 348 364 L 345 364 L 344 363 L 330 363 L 329 364 L 324 364 L 323 365 L 321 365 L 320 366 L 312 368 Z M 654 367 L 654 448 L 655 450 L 657 451 L 665 452 L 666 453 L 674 455 L 681 459 L 683 459 L 690 463 L 697 469 L 701 468 L 717 452 L 718 452 L 724 446 L 725 446 L 730 441 L 731 441 L 739 434 L 740 434 L 746 429 L 753 425 L 756 422 L 767 417 L 771 414 L 771 412 L 764 405 L 764 404 L 748 390 L 747 390 L 742 386 L 739 385 L 734 381 L 731 380 L 726 376 L 720 373 L 718 373 L 715 371 L 713 371 L 708 368 L 706 368 L 703 366 L 701 366 L 698 364 L 696 364 L 692 362 L 688 362 L 687 361 L 684 361 L 683 360 L 671 360 L 670 361 L 666 361 L 654 367 Z M 273 359 L 263 359 L 259 361 L 256 361 L 255 362 L 253 362 L 252 363 L 250 363 L 249 364 L 247 364 L 246 365 L 238 367 L 223 375 L 219 376 L 217 378 L 214 379 L 211 382 L 207 384 L 204 387 L 197 391 L 194 394 L 190 396 L 176 410 L 176 416 L 178 418 L 181 419 L 183 421 L 193 426 L 195 428 L 199 430 L 202 433 L 209 437 L 212 440 L 213 440 L 216 443 L 217 443 L 239 464 L 240 464 L 245 468 L 247 468 L 251 466 L 254 463 L 270 455 L 272 455 L 276 453 L 279 453 L 280 452 L 283 452 L 287 450 L 290 446 L 290 380 L 292 377 L 292 374 L 291 373 L 291 370 L 287 366 L 273 359 Z M 657 219 L 655 219 L 654 220 L 654 320 L 656 320 L 668 314 L 670 312 L 671 312 L 679 304 L 679 303 L 683 298 L 683 296 L 685 293 L 685 291 L 686 290 L 686 288 L 688 284 L 688 281 L 689 280 L 689 259 L 688 258 L 688 254 L 687 253 L 687 251 L 682 241 L 680 239 L 678 235 L 669 226 L 668 226 L 663 222 L 657 219 Z M 286 219 L 282 222 L 279 223 L 265 237 L 260 247 L 260 249 L 257 255 L 257 259 L 256 260 L 256 280 L 257 281 L 257 284 L 258 285 L 259 291 L 267 305 L 276 314 L 285 319 L 288 319 L 290 317 L 290 220 L 289 219 L 286 219 Z M 615 199 L 609 202 L 609 203 L 607 205 L 607 207 L 605 211 L 605 332 L 606 333 L 606 336 L 607 338 L 612 344 L 616 345 L 617 346 L 621 346 L 622 345 L 625 345 L 627 344 L 632 339 L 633 335 L 634 334 L 634 210 L 633 209 L 632 205 L 629 201 L 625 199 L 615 199 Z M 323 198 L 322 199 L 319 199 L 315 201 L 313 203 L 311 207 L 311 209 L 310 210 L 310 332 L 311 333 L 311 336 L 315 343 L 319 345 L 321 345 L 322 346 L 326 346 L 327 345 L 330 345 L 332 344 L 336 340 L 338 336 L 338 334 L 339 333 L 339 210 L 338 209 L 338 207 L 334 202 L 333 202 L 329 199 L 323 198 Z M 463 175 L 459 177 L 448 177 L 447 178 L 440 179 L 439 180 L 437 180 L 436 181 L 434 181 L 433 182 L 431 182 L 430 183 L 428 183 L 425 185 L 421 186 L 419 188 L 412 191 L 410 193 L 402 197 L 382 216 L 380 220 L 377 223 L 377 224 L 373 229 L 370 235 L 370 237 L 368 240 L 368 242 L 366 245 L 366 247 L 363 252 L 362 257 L 361 258 L 361 263 L 360 264 L 360 267 L 359 268 L 359 277 L 358 278 L 358 300 L 359 301 L 360 317 L 361 318 L 361 321 L 363 325 L 364 331 L 366 334 L 366 336 L 370 344 L 375 350 L 377 354 L 392 369 L 393 369 L 417 391 L 418 391 L 425 397 L 429 399 L 432 402 L 433 402 L 436 405 L 437 405 L 440 408 L 444 410 L 447 413 L 448 413 L 453 417 L 457 418 L 460 420 L 463 420 L 464 421 L 478 421 L 479 420 L 484 419 L 489 416 L 491 416 L 495 414 L 497 412 L 498 412 L 500 410 L 507 406 L 510 403 L 511 403 L 527 389 L 528 389 L 533 384 L 534 384 L 539 379 L 540 379 L 545 374 L 546 374 L 551 369 L 552 369 L 568 352 L 568 351 L 572 346 L 573 343 L 575 341 L 576 338 L 578 336 L 580 332 L 580 330 L 581 329 L 583 321 L 584 320 L 584 314 L 585 313 L 585 310 L 587 306 L 587 296 L 588 295 L 588 282 L 587 281 L 587 271 L 586 270 L 586 266 L 585 265 L 584 257 L 583 256 L 582 251 L 579 246 L 579 244 L 576 239 L 576 237 L 573 231 L 565 221 L 565 220 L 562 217 L 562 216 L 549 203 L 548 203 L 544 199 L 540 197 L 534 192 L 516 183 L 514 183 L 513 182 L 511 182 L 510 181 L 508 181 L 504 179 L 500 179 L 499 178 L 492 178 L 489 176 L 481 176 L 480 175 L 463 175 Z M 519 264 L 528 264 L 529 265 L 532 265 L 543 271 L 550 279 L 552 283 L 553 288 L 554 289 L 554 301 L 553 302 L 553 305 L 550 311 L 543 319 L 542 319 L 539 322 L 535 324 L 533 324 L 532 325 L 514 325 L 508 322 L 498 312 L 494 304 L 494 300 L 493 299 L 493 293 L 494 292 L 494 285 L 497 279 L 506 270 L 513 266 L 515 266 L 519 264 Z M 411 265 L 414 265 L 415 264 L 428 264 L 429 265 L 434 266 L 436 268 L 437 268 L 447 278 L 450 284 L 450 287 L 451 288 L 451 302 L 450 303 L 450 305 L 447 311 L 440 319 L 439 319 L 436 322 L 432 324 L 430 324 L 429 325 L 412 325 L 411 324 L 407 323 L 405 321 L 404 321 L 395 312 L 391 304 L 391 300 L 390 299 L 390 292 L 391 291 L 391 287 L 392 286 L 393 281 L 395 279 L 397 275 L 402 270 L 411 265 Z M 331 171 L 331 174 L 334 177 L 335 177 L 338 180 L 339 180 L 342 183 L 343 183 L 357 197 L 357 199 L 358 200 L 358 207 L 360 207 L 376 191 L 377 191 L 380 188 L 381 188 L 392 180 L 406 173 L 408 173 L 419 167 L 421 167 L 424 165 L 430 164 L 431 163 L 434 163 L 435 162 L 441 161 L 442 160 L 445 160 L 446 159 L 456 159 L 457 158 L 490 158 L 491 159 L 496 159 L 497 160 L 504 160 L 505 161 L 508 161 L 509 162 L 512 162 L 513 163 L 515 163 L 519 165 L 525 166 L 532 170 L 534 170 L 548 177 L 553 181 L 559 184 L 567 191 L 568 191 L 580 203 L 580 204 L 584 208 L 587 208 L 587 197 L 589 195 L 589 194 L 591 193 L 597 187 L 598 187 L 612 174 L 613 174 L 613 170 L 612 170 L 608 166 L 607 166 L 604 163 L 603 163 L 590 152 L 587 151 L 585 149 L 579 146 L 574 142 L 552 131 L 544 129 L 541 127 L 536 126 L 533 124 L 530 124 L 529 123 L 526 123 L 525 122 L 522 122 L 521 121 L 518 121 L 517 120 L 514 120 L 513 119 L 507 119 L 506 118 L 497 118 L 496 117 L 453 117 L 452 118 L 442 118 L 441 119 L 438 119 L 437 120 L 432 120 L 431 121 L 426 121 L 425 122 L 420 122 L 419 123 L 416 123 L 415 124 L 413 124 L 412 125 L 410 125 L 409 126 L 407 126 L 406 127 L 404 127 L 403 128 L 395 130 L 390 133 L 388 133 L 383 136 L 381 136 L 375 139 L 373 141 L 370 142 L 365 146 L 362 147 L 360 149 L 357 150 L 355 152 L 351 154 L 331 171 Z" fill="#57a963" fill-rule="evenodd"/>
</svg>